<svg width="139" height="78" viewBox="0 0 139 78" fill="none" xmlns="http://www.w3.org/2000/svg">
<g clip-path="url(#clip0_114_345)">
<path d="M59.4601 35.65C64.0801 35.65 67.9501 39.52 70.9601 41.5C71.2801 41.71 71.7201 41.69 72.1401 41.45C75.5401 39.51 79.5401 38.34 83.5601 38.34C88.2401 38.34 92.0301 39.92 94.3801 42.45C94.6901 42.78 95.2201 42.81 95.7201 42.52C100.24 39.92 105.56 38.34 110.92 38.34C115.61 38.34 119.63 39.55 122.65 41.59C123.34 42.06 124.49 41.37 124.65 40.43C127.51 23.67 114.26 10.49 93.7801 10.49C73.3001 10.49 54.1001 20.34 47.4601 36.5C47.1101 37.35 47.8201 38.04 48.7001 37.7C52.1001 36.39 55.7701 35.64 59.4601 35.64V35.65Z" fill="#D5442B" stroke="white" stroke-miterlimit="10"/>
<path d="M30.64 76.41H45.14C49.68 76.41 53.47 75.4 56.48 73.38C59.5 71.36 61.5 68.5 62.5 64.8C63.17 62.3 63 60.2 62 58.51C61.42 57.53 60.58 56.71 59.47 56.04C58.63 55.53 58.92 54.15 60.03 53.6C61.25 53 62.34 52.27 63.32 51.39C65.14 49.76 66.35 47.8 66.96 45.53C67.84 42.26 67.41 39.74 65.69 37.95C63.97 36.16 61.09 35.27 57.06 35.27H41.66C40.89 35.27 40.1 35.89 39.9 36.66L32.7 63.55H19.47C18.19 63.55 16.87 64.59 16.53 65.87C16.19 67.15 16.95 68.19 18.23 68.19H29.34C30.41 68.19 31.19 69.21 30.91 70.24C30.72 70.95 30.07 71.45 29.34 71.45H3.42003C2.14003 71.45 0.820028 72.49 0.480027 73.77C0.140027 75.05 0.900028 76.09 2.18003 76.09L30.65 76.39L30.64 76.41ZM52.24 63.48C51.77 65.23 50.97 66.51 49.84 67.32C48.71 68.14 47.17 68.55 45.22 68.55H43.31C42.54 68.55 42.09 67.93 42.29 67.16L44.22 59.97C44.43 59.2 45.21 58.58 45.98 58.58H47.49C49.59 58.58 51.02 58.97 51.78 59.75C52.54 60.53 52.69 61.77 52.23 63.48H52.24ZM56.38 46.86C55.94 48.51 55.14 49.7 54 50.44C52.86 51.17 51.21 51.54 49.07 51.54H47.87C47.1 51.54 46.65 50.92 46.85 50.15L48.5 44C48.71 43.23 49.49 42.61 50.26 42.61H51.72C53.8 42.61 55.2 42.94 55.92 43.6C56.64 44.26 56.79 45.35 56.38 46.87V46.86Z" fill="#0C2745" stroke="white" stroke-width="0.79" stroke-miterlimit="10"/>
<path d="M86.4301 11.43C86.4301 11.43 85.5901 5.54 80.6701 2.42C80.0701 2.04 80.6601 0.970001 81.4401 1.03C84.9001 1.29 90.0501 2.78 92.7801 8.87C92.7801 8.87 100.68 -0.949999 109.74 0.0800011C110.4 0.150001 110.36 1.05 109.69 1.43C106.68 3.13 100.88 6.86 98.7901 11.3C98.7901 11.3 112.64 7.37 119.57 13.73C120.07 14.18 119.39 15.16 118.66 15.05C114.42 14.39 105.56 13.63 98.9401 17.27C98.9401 17.27 105.17 21.19 103.93 30.3C103.83 31.02 102.85 31.44 102.5 30.91C100.58 28.01 96.0001 22.05 89.8901 20.31C89.8901 20.31 80.8401 23.91 73.3601 30.62C72.6901 31.22 71.8601 30.72 72.2601 29.96C74.5701 25.57 79.1801 18.25 84.6701 17.29C84.6701 17.29 75.6701 14.37 66.1701 16.35C65.3001 16.53 65.1701 15.4 66.0201 14.98C71.0201 12.55 78.7401 9.87 86.4301 11.43Z" fill="#8DC32D"/>
<path d="M95.39 13.81C95.13 14.78 93.41 15.57 91.55 15.57C89.69 15.57 88.39 14.78 88.65 13.81C88.91 12.84 90.63 12.05 92.49 12.05C94.35 12.05 95.65 12.84 95.39 13.81Z" fill="#6D8F31"/>
<path d="M56.1001 73.8L65.7201 37.89C66.1101 36.45 67.5801 35.29 69.0201 35.29H74.4901C75.9301 35.29 76.7801 36.46 76.3901 37.89L66.7701 73.8C66.3801 75.24 64.9101 76.4 63.4701 76.4H58.0001C56.5601 76.4 55.7101 75.23 56.1001 73.8Z" fill="#0C2745" stroke="white" stroke-width="0.79" stroke-miterlimit="10"/>
<path d="M71.8099 75L79.9799 44.52C80.1899 43.75 79.7299 43.12 78.9499 43.12H72.9099C72.1399 43.12 71.6799 42.49 71.8799 41.72L73.2299 36.7C73.4399 35.93 74.2299 35.3 75.0099 35.3H100.42C101.19 35.3 101.65 35.93 101.45 36.7L100.1 41.72C99.8899 42.49 99.0999 43.12 98.3199 43.12H92.3099C91.5399 43.12 90.7399 43.75 90.5299 44.52L82.3599 75C82.1499 75.77 81.3599 76.4 80.5799 76.4H72.8199C72.0499 76.4 71.5899 75.77 71.7899 75H71.8099Z" fill="#0C2745" stroke="white" stroke-width="0.79" stroke-miterlimit="10"/>
<path d="M87.3401 74.82L97.5101 36.87C97.7401 36 98.6401 35.29 99.5201 35.29H122.12C122.99 35.29 123.51 36 123.28 36.87L122.03 41.53C121.8 42.4 120.9 43.11 120.02 43.11H107.98C107.11 43.11 106.21 43.82 105.97 44.69L104.67 49.55C104.44 50.42 104.95 51.13 105.83 51.13H112.8C113.67 51.13 114.19 51.84 113.96 52.71L112.7 57.4C112.47 58.27 111.57 58.98 110.69 58.98H103.72C102.85 58.98 101.95 59.69 101.71 60.56L100 66.94C99.7701 67.81 100.28 68.52 101.16 68.52H113.2C114.07 68.52 114.59 69.23 114.36 70.1L113.1 74.79C112.87 75.66 111.97 76.37 111.09 76.37H88.4901C87.6201 76.37 87.1001 75.66 87.3301 74.79L87.3401 74.82Z" fill="#0C2745" stroke="white" stroke-width="0.79" stroke-miterlimit="10"/>
<path d="M110.96 64.28C112.38 63.78 113.68 64.32 114.06 65.51C114.37 66.48 114.8 67.27 115.34 67.88C116.24 68.9 117.42 69.41 118.89 69.41C120.26 69.41 121.42 69.09 122.37 68.44C123.32 67.79 123.96 66.89 124.27 65.72C124.54 64.72 124.4 63.86 123.86 63.11C123.32 62.36 121.79 61.33 119.27 60C115.15 57.8 112.56 55.8 111.5 53.99C110.44 52.18 110.28 49.92 111.01 47.22C112.01 43.48 114.13 40.42 117.37 38.04C120.61 35.66 124.26 34.46 128.31 34.46C131.41 34.46 133.89 35.27 135.76 36.88C136.94 37.9 137.8 39.18 138.35 40.73C138.9 42.28 137.67 44.16 135.88 44.8L132.59 45.97C131.2 46.46 129.9 45.98 129.5 44.83C129.29 44.23 129.02 43.73 128.68 43.35C128.01 42.59 127.07 42.21 125.85 42.21C124.76 42.21 123.8 42.52 122.97 43.13C122.14 43.74 121.59 44.54 121.33 45.54C121.09 46.42 121.28 47.21 121.88 47.91C122.48 48.61 123.97 49.55 126.33 50.75C126.58 50.86 126.96 51.05 127.47 51.31C129.96 52.51 131.8 53.67 132.99 54.77C134.11 55.84 134.84 57.16 135.17 58.73C135.5 60.3 135.41 62.02 134.91 63.9C134.48 65.5 133.77 67.05 132.76 68.56C131.75 70.07 130.51 71.46 129.03 72.71C127.3 74.19 125.38 75.32 123.28 76.08C121.18 76.84 118.95 77.22 116.58 77.22C112.86 77.22 109.95 76.32 107.84 74.53C106.36 73.27 105.3 71.6 104.68 69.52C104.24 68.06 105.47 66.19 107.2 65.59L110.96 64.28Z" fill="#0C2745" stroke="white" stroke-width="0.79" stroke-miterlimit="10"/>
<path d="M12.37 68.21H10.88C9.59998 68.21 8.83998 67.17 9.17998 65.89C9.51998 64.61 10.85 63.57 12.12 63.57H13.61C14.89 63.57 15.65 64.61 15.31 65.89C14.97 67.17 13.64 68.21 12.37 68.21Z" fill="#0C2745"/>
</g>
<defs>
<clipPath id="clip0_114_345">
<rect width="138.87" height="77.62" fill="white"/>
</clipPath>
</defs>
</svg>
